<svg width="81" height="81" viewBox="0 0 81 81" fill="none" xmlns="http://www.w3.org/2000/svg">
<path d="M49.9922 10.7578H6.96094V63.2812H49.9922V10.7578Z" fill="white"/>
<path d="M49.9922 10.7578H6.96094V63.2812H49.9922V10.7578Z" stroke="#242C88" stroke-width="2" stroke-miterlimit="10" stroke-linecap="round" stroke-linejoin="round"/>
<path d="M20.8828 29.1094H14.5547C13.8586 29.1094 13.2891 28.5398 13.2891 27.8438V21.5156C13.2891 20.8195 13.8586 20.25 14.5547 20.25H20.8828C21.5789 20.25 22.1484 20.8195 22.1484 21.5156V27.8438C22.1484 28.5398 21.5789 29.1094 20.8828 29.1094Z" fill="#83D689"/>
<path d="M20.7562 41.7656H14.5547C13.8586 41.7656 13.2891 41.1961 13.2891 40.5V34.1719C13.2891 33.4758 13.8586 32.9062 14.5547 32.9062H20.8828C21.5789 32.9062 22.1484 33.4758 22.1484 34.1719V40.3734C22.1484 41.1328 21.5156 41.7656 20.7562 41.7656Z" fill="#83D689"/>
<path d="M20.8828 55.0547H14.5547C13.8586 55.0547 13.2891 54.4852 13.2891 53.7891V47.4609C13.2891 46.7648 13.8586 46.1953 14.5547 46.1953H20.8828C21.5789 46.1953 22.1484 46.7648 22.1484 47.4609V53.7891C22.1484 54.4852 21.5789 55.0547 20.8828 55.0547Z" fill="#83D689"/>
<path d="M20.8828 29.1094H14.5547C13.8586 29.1094 13.2891 28.5398 13.2891 27.8438V21.5156C13.2891 20.8195 13.8586 20.25 14.5547 20.25H20.8828C21.5789 20.25 22.1484 20.8195 22.1484 21.5156V27.8438C22.1484 28.5398 21.5789 29.1094 20.8828 29.1094Z" stroke="#242C88" stroke-width="2" stroke-miterlimit="10" stroke-linecap="round" stroke-linejoin="round"/>
<path d="M20.7562 41.7656H14.5547C13.8586 41.7656 13.2891 41.1961 13.2891 40.5V34.1719C13.2891 33.4758 13.8586 32.9062 14.5547 32.9062H20.8828C21.5789 32.9062 22.1484 33.4758 22.1484 34.1719V40.3734C22.1484 41.1328 21.5156 41.7656 20.7562 41.7656Z" stroke="#242C88" stroke-width="2" stroke-miterlimit="10" stroke-linecap="round" stroke-linejoin="round"/>
<path d="M20.8828 55.0547H14.5547C13.8586 55.0547 13.2891 54.4852 13.2891 53.7891V47.4609C13.2891 46.7648 13.8586 46.1953 14.5547 46.1953H20.8828C21.5789 46.1953 22.1484 46.7648 22.1484 47.4609V53.7891C22.1484 54.4852 21.5789 55.0547 20.8828 55.0547Z" stroke="#242C88" stroke-width="2" stroke-miterlimit="10" stroke-linecap="round" stroke-linejoin="round"/>
<path opacity="0.2" d="M49.9922 63.9141V15.1875H17.7188C17.0227 15.1875 16.4531 15.757 16.4531 16.4531V63.9141H49.9922Z" fill="#242C88"/>
<path d="M62.6484 18.3516H19.6172V70.875H62.6484V18.3516Z" fill="white"/>
<path d="M62.6484 18.3516H19.6172V70.875H62.6484V18.3516Z" stroke="#242C88" stroke-width="2" stroke-miterlimit="10" stroke-linecap="round" stroke-linejoin="round"/>
<path opacity="0.2" d="M39.8672 33.5391H47.4609" stroke="#242C88" stroke-width="2" stroke-miterlimit="10" stroke-linecap="round" stroke-linejoin="round"/>
<path opacity="0.2" d="M39.8672 30.375H55.0547" stroke="#242C88" stroke-width="2" stroke-miterlimit="10" stroke-linecap="round" stroke-linejoin="round"/>
<path d="M34.1719 36.7031H27.8438C27.1477 36.7031 26.5781 36.1336 26.5781 35.4375V29.1094C26.5781 28.4133 27.1477 27.8438 27.8438 27.8438H34.1719C34.868 27.8438 35.4375 28.4133 35.4375 29.1094V35.4375C35.4375 36.1336 34.868 36.7031 34.1719 36.7031Z" fill="#83D689"/>
<path d="M28.6664 32.7156L30.5015 34.4242L34.1086 30.7539" stroke="#242C88" stroke-width="2" stroke-miterlimit="10" stroke-linecap="round" stroke-linejoin="round"/>
<path opacity="0.2" d="M39.8672 46.8281H47.4609" stroke="#242C88" stroke-width="2" stroke-miterlimit="10" stroke-linecap="round" stroke-linejoin="round"/>
<path opacity="0.2" d="M39.8672 43.0312H55.0547" stroke="#242C88" stroke-width="2" stroke-miterlimit="10" stroke-linecap="round" stroke-linejoin="round"/>
<path d="M34.1719 49.3594H27.8438C27.1477 49.3594 26.5781 48.7898 26.5781 48.0938V41.7656C26.5781 41.0695 27.1477 40.5 27.8438 40.5H34.0453C34.8047 40.5 35.4375 41.1328 35.4375 41.8922V48.0938C35.4375 48.7898 34.868 49.3594 34.1719 49.3594Z" fill="#83D689"/>
<path d="M28.6664 45.5L30.5015 47.2086L34.1086 43.6016" stroke="#242C88" stroke-width="2" stroke-miterlimit="10" stroke-linecap="round" stroke-linejoin="round"/>
<path opacity="0.2" d="M39.8672 59.4844H47.4609" stroke="#242C88" stroke-width="2" stroke-miterlimit="10" stroke-linecap="round" stroke-linejoin="round"/>
<path opacity="0.2" d="M39.8672 56.3203H55.0547" stroke="#242C88" stroke-width="2" stroke-miterlimit="10" stroke-linecap="round" stroke-linejoin="round"/>
<path d="M34.1719 62.0156H27.8438C27.1477 62.0156 26.5781 61.4461 26.5781 60.75V54.4219C26.5781 53.7258 27.1477 53.1562 27.8438 53.1562H34.1719C34.868 53.1562 35.4375 53.7258 35.4375 54.4219V60.75C35.4375 61.4461 34.868 62.0156 34.1719 62.0156Z" fill="#83D689"/>
<path d="M34.1719 36.7031H27.8438C27.1477 36.7031 26.5781 36.1336 26.5781 35.4375V29.1094C26.5781 28.4133 27.1477 27.8438 27.8438 27.8438H34.1719C34.868 27.8438 35.4375 28.4133 35.4375 29.1094V35.4375C35.4375 36.1336 34.868 36.7031 34.1719 36.7031Z" stroke="#242C88" stroke-width="2" stroke-miterlimit="10" stroke-linecap="round" stroke-linejoin="round"/>
<path d="M34.1719 49.3594H27.8438C27.1477 49.3594 26.5781 48.7898 26.5781 48.0938V41.7656C26.5781 41.0695 27.1477 40.5 27.8438 40.5H34.0453C34.8047 40.5 35.4375 41.1328 35.4375 41.8922V48.0938C35.4375 48.7898 34.868 49.3594 34.1719 49.3594Z" stroke="#242C88" stroke-width="2" stroke-miterlimit="10" stroke-linecap="round" stroke-linejoin="round"/>
<path d="M34.1719 62.0156H27.8438C27.1477 62.0156 26.5781 61.4461 26.5781 60.75V54.4219C26.5781 53.7258 27.1477 53.1562 27.8438 53.1562H34.1719C34.868 53.1562 35.4375 53.7258 35.4375 54.4219V60.75C35.4375 61.4461 34.868 62.0156 34.1719 62.0156Z" stroke="#242C88" stroke-width="2" stroke-miterlimit="10" stroke-linecap="round" stroke-linejoin="round"/>
<path opacity="0.2" d="M62.6484 36.4492L41.2593 49.0422L33.9187 60.0531L47.0812 58.9141L62.6484 49.7383V36.4492Z" fill="#242C88"/>
<path d="M70.4953 31.7035L46.7015 55.4973L34.2351 59.8637L38.6015 47.3973L62.3953 23.6035L70.4953 31.7035Z" fill="white"/>
<path d="M62.4149 23.6345L38.61 47.4395L46.709 55.5385L70.514 31.7335L62.4149 23.6345Z" fill="#FFC408"/>
<path opacity="0.2" d="M68.1227 29.3552L44.3177 53.1602L46.6893 55.5317L70.4943 31.7267L68.1227 29.3552Z" fill="#242C88"/>
<path d="M36.1335 54.4219L34.2351 59.7375L39.5507 57.8391L36.1335 54.4219Z" fill="#5E61A3"/>
<path d="M70.4953 31.7035L46.7015 55.4973L34.2351 59.8637L38.6015 47.3973L62.3953 23.6035L70.4953 31.7035Z" stroke="#242C88" stroke-width="2" stroke-miterlimit="10" stroke-linecap="round" stroke-linejoin="round"/>
<path d="M70.4953 31.7037L74.2921 27.9068C75.3679 26.8311 75.3679 25.1225 74.2921 24.11L69.989 19.8068C68.9132 18.7311 67.2046 18.7311 66.1921 19.8068L62.3953 23.6037L70.4953 31.7037Z" fill="#F3877E"/>
<path d="M70.4953 31.7037L74.2921 27.9068C75.3679 26.8311 75.3679 25.1225 74.2921 24.11L69.989 19.8068C68.9132 18.7311 67.2046 18.7311 66.1921 19.8068L62.3953 23.6037L70.4953 31.7037Z" stroke="#242C88" stroke-width="2" stroke-miterlimit="10" stroke-linecap="round" stroke-linejoin="round"/>
<path d="M51.0046 46.4477L67.6476 29.8047" stroke="#242C88" stroke-width="2" stroke-miterlimit="10" stroke-linecap="round" stroke-linejoin="round"/>
<path d="M44.2969 53.157L48.157 49.2969" stroke="#242C88" stroke-width="2" stroke-miterlimit="10" stroke-linecap="round" stroke-linejoin="round"/>
<path d="M63.8317 22.2474L60.5205 25.5586L68.6196 33.6577L71.9308 30.3464L63.8317 22.2474Z" fill="white"/>
<path opacity="0.2" d="M63.8317 22.2474L60.5205 25.5586L68.6196 33.6577L71.9308 30.3464L63.8317 22.2474Z" fill="#242C88"/>
<path d="M63.8317 22.2474L60.5205 25.5586L68.6196 33.6577L71.9308 30.3464L63.8317 22.2474Z" stroke="#242C88" stroke-width="2" stroke-miterlimit="10" stroke-linecap="round" stroke-linejoin="round"/>
</svg>
