<svg width="64" height="64" viewBox="0 0 64 64" fill="none" xmlns="http://www.w3.org/2000/svg">
<path d="M59 36H5V46H59V36Z" fill="#FEBC00"/>
<path d="M7 36H5V46H59V44H15C12.8783 44 10.8434 43.1571 9.34315 41.6569C7.84285 40.1566 7 38.1217 7 36Z" fill="#EDAA03"/>
<path d="M34.044 45.4776C32.6997 45.4009 31.3965 44.9861 30.2552 44.2716C29.1139 43.5572 28.1714 42.5663 27.515 41.3906L17 51.9076C16.8716 52.0359 16.7805 52.1967 16.7366 52.3728C16.6926 52.5489 16.6974 52.7336 16.7504 52.9072C16.8034 53.0808 16.9027 53.2366 17.0376 53.3581C17.1724 53.4795 17.3378 53.562 17.516 53.5966L20.37 54.1516L20.949 57.0346C20.9846 57.2121 21.0677 57.3766 21.1894 57.5105C21.3111 57.6445 21.4669 57.7429 21.6402 57.7952C21.8135 57.8476 21.9977 57.8519 22.1732 57.8078C22.3488 57.7636 22.509 57.6727 22.637 57.5446L34.327 45.8536L34 45.5236L34.044 45.4776Z" fill="#CC2600"/>
<path d="M46.156 51.4074L35.856 41.1074C35.1574 42.274 34.1731 43.2433 32.9959 43.9237C31.8187 44.6042 30.4875 44.9734 29.128 44.9964L29.158 45.0254L28.829 45.3554L40.519 57.0444C40.6469 57.1722 40.8071 57.2629 40.9825 57.3069C41.1579 57.3509 41.342 57.3465 41.5151 57.2941C41.6881 57.2418 41.8438 57.1435 41.9655 57.0097C42.0871 56.876 42.1703 56.7117 42.206 56.5344L42.785 53.6514L45.64 53.1004C45.8181 53.0658 45.9835 52.9833 46.1184 52.8619C46.2532 52.7404 46.3525 52.5845 46.4055 52.411C46.4585 52.2374 46.4633 52.0527 46.4194 51.8766C46.3754 51.7005 46.2844 51.5397 46.156 51.4114V51.4074Z" fill="#CC2600"/>
<path d="M32.126 47.9936C32.084 47.9936 32.043 47.9996 32 47.9996C31.846 47.9996 31.7 47.9856 31.544 47.9766L31.498 48.0226L31.827 48.3526L32.156 48.0226L32.126 47.9936Z" fill="#CC2600"/>
<path d="M15 12H49V30C49 30.5304 48.7893 31.0391 48.4142 31.4142C48.0391 31.7893 47.5304 32 47 32H17C16.4696 32 15.9609 31.7893 15.5858 31.4142C15.2107 31.0391 15 30.5304 15 30V12Z" fill="#0455BF"/>
<path d="M17 12H15V30C15 30.5304 15.2107 31.0391 15.5858 31.4142C15.9609 31.7893 16.4696 32 17 32H47C47.5304 32 48.0391 31.7893 48.4142 31.4142C48.7893 31.0391 49 30.5304 49 30H35C30.2261 30 25.6477 28.1036 22.2721 24.7279C18.8964 21.3523 17 16.7739 17 12Z" fill="#004787"/>
<path d="M55 11H53V23H55V11Z" fill="#0455BF"/>
<path d="M55 11H54V23H55V11Z" fill="#004787"/>
<path d="M56.25 34H51.75C51.336 34 51 33.553 51 33V22C51 21.447 51.336 21 51.75 21H56.25C56.664 21 57 21.447 57 22V33C57 33.553 56.664 34 56.25 34Z" fill="#F74E0C"/>
<path d="M53.75 32C53.336 32 53 31.553 53 31V21H51.75C51.336 21 51 21.447 51 22V33C51 33.553 51.336 34 51.75 34H56.25C56.664 34 57 33.553 57 33V32H53.75Z" fill="#CC2600"/>
<path d="M5 46C3.29 46 2 43.851 2 41C2 38.149 3.29 36 5 36C6.71 36 8 38.149 8 41C8 43.851 6.71 46 5 46Z" fill="#F74E0C"/>
<path d="M4 40C3.94212 38.5843 4.34841 37.1885 5.157 36.025C5.1 36.021 5.054 36 5 36C3.29 36 2 38.149 2 41C2 43.851 3.29 46 5 46C5.36547 45.983 5.72204 45.8816 6.04179 45.7038C6.36153 45.526 6.63576 45.2765 6.843 44.975C5.214 44.845 4 42.761 4 40Z" fill="#CC2600"/>
<path d="M59 46C57.29 46 56 43.851 56 41C56 38.149 57.29 36 59 36C60.71 36 62 38.149 62 41C62 43.851 60.71 46 59 46Z" fill="#F74E0C"/>
<path d="M32 49C30.4178 49 28.871 48.5308 27.5554 47.6518C26.2399 46.7727 25.2145 45.5233 24.609 44.0615C24.0035 42.5997 23.845 40.9911 24.1537 39.4393C24.4624 37.8874 25.2243 36.462 26.3431 35.3432C27.462 34.2243 28.8874 33.4624 30.4393 33.1537C31.9911 32.845 33.5997 33.0035 35.0615 33.609C36.5233 34.2145 37.7727 35.2399 38.6518 36.5554C39.5308 37.871 40 39.4178 40 41C39.9976 43.121 39.154 45.1545 37.6542 46.6542C36.1545 48.154 34.121 48.9976 32 49Z" fill="#F74E0C"/>
<path d="M32 45C31.2089 45 30.4355 44.7654 29.7777 44.3259C29.1199 43.8864 28.6072 43.2616 28.3045 42.5307C28.0017 41.7998 27.9225 40.9956 28.0769 40.2196C28.2312 39.4437 28.6122 38.731 29.1716 38.1716C29.731 37.6122 30.4437 37.2312 31.2196 37.0769C31.9956 36.9225 32.7998 37.0017 33.5307 37.3045C34.2616 37.6072 34.8864 38.1199 35.3259 38.7777C35.7654 39.4355 36 40.2089 36 41C36 42.0609 35.5786 43.0783 34.8284 43.8284C34.0783 44.5786 33.0609 45 32 45Z" fill="#CC2600"/>
<path d="M56 14H8C7.73478 14 7.48043 13.8946 7.29289 13.7071C7.10536 13.5196 7 13.2652 7 13V9C7 8.73478 7.10536 8.48043 7.29289 8.29289C7.48043 8.10536 7.73478 8 8 8H56C56.2652 8 56.5196 8.10536 56.7071 8.29289C56.8946 8.48043 57 8.73478 57 9V13C57 13.2652 56.8946 13.5196 56.7071 13.7071C56.5196 13.8946 56.2652 14 56 14Z" fill="#0455BF"/>
<path d="M57 12H9V8H8C7.73478 8 7.48043 8.10536 7.29289 8.29289C7.10536 8.48043 7 8.73478 7 9V13C7 13.2652 7.10536 13.5196 7.29289 13.7071C7.48043 13.8946 7.73478 14 8 14H56C56.2652 14 56.5196 13.8946 56.7071 13.7071C56.8946 13.5196 57 13.2652 57 13V12Z" fill="#004787"/>
</svg>
