<svg width="32" height="32" viewBox="0 0 32 32" fill="none" xmlns="http://www.w3.org/2000/svg">
<path fill-rule="evenodd" clip-rule="evenodd" d="M4 6.66667C4 5.19391 5.19391 4 6.66667 4H12C13.4728 4 14.6667 5.19391 14.6667 6.66667V12C14.6667 13.4728 13.4728 14.6667 12 14.6667H6.66667C5.19391 14.6667 4 13.4728 4 12V6.66667ZM12 6.66667H6.66667V12H12V6.66667Z" fill="white"/>
<path fill-rule="evenodd" clip-rule="evenodd" d="M4 20.0007C4 18.5279 5.19391 17.334 6.66667 17.334H12C13.4728 17.334 14.6667 18.5279 14.6667 20.0007V25.334C14.6667 26.8068 13.4728 28.0007 12 28.0007H6.66667C5.19391 28.0007 4 26.8068 4 25.334V20.0007ZM12 20.0007H6.66667V25.334H12V20.0007Z" fill="white"/>
<path fill-rule="evenodd" clip-rule="evenodd" d="M17.3334 6.66667C17.3334 5.19391 18.5272 4 20 4H25.3334C26.8062 4 28 5.19391 28 6.66667V12C28 13.4728 26.8062 14.6667 25.3334 14.6667H20C18.5272 14.6667 17.3334 13.4728 17.3334 12V6.66667ZM25.3334 6.66667H20V12H25.3334V6.66667Z" fill="white"/>
<path fill-rule="evenodd" clip-rule="evenodd" d="M17.3334 20.0007C17.3334 18.5279 18.5272 17.334 20 17.334H25.3334C26.8062 17.334 28 18.5279 28 20.0007V25.334C28 26.8068 26.8062 28.0007 25.3334 28.0007H20C18.5272 28.0007 17.3334 26.8068 17.3334 25.334V20.0007ZM25.3334 20.0007H20V25.334H25.3334V20.0007Z" fill="white"/>
</svg>
