<svg width="66" height="49" viewBox="0 0 66 49" fill="none" xmlns="http://www.w3.org/2000/svg">
<path d="M12.7343 36.7544H5.26245C2.90556 36.7544 1 34.8489 1 32.492V5.28752C1 2.90556 2.90556 1 5.26245 1H49.2158C51.5727 1 53.5033 2.90556 53.5033 5.28752V7.14294" fill="#0097D3"/>
<path d="M58.178 43.1851L65.2494 48.6137V38.6346V36.9797V11.4301C65.2494 9.04814 63.3188 7.14258 60.9619 7.14258H17.0085C14.6545 7.14258 12.7461 9.05095 12.7461 11.405V38.6346C12.7461 40.9886 14.6545 42.897 17.0085 42.897H57.3295C57.6363 42.897 57.9346 42.9983 58.178 43.1851Z" fill="#F4F4F4"/>
<path d="M58.178 43.1851L65.2494 48.6137V38.6346V36.9797V11.4301C65.2494 9.04814 63.3188 7.14258 60.9619 7.14258H17.0085C14.6545 7.14258 12.7461 9.05095 12.7461 11.405V38.6346C12.7461 40.9886 14.6545 42.897 17.0085 42.897H57.3295C57.6363 42.897 57.9346 42.9983 58.178 43.1851Z" stroke="#303030" stroke-width="0.7" stroke-miterlimit="10" stroke-linecap="round" stroke-linejoin="round"/>
<path d="M12.7343 36.7544H5.26245C2.90556 36.7544 1 34.8489 1 32.492V5.28752C1 2.90556 2.90556 1 5.26245 1H49.2158C51.5727 1 53.5033 2.90556 53.5033 5.28752V7.14294" stroke="#303030" stroke-width="0.7" stroke-miterlimit="10" stroke-linecap="round" stroke-linejoin="round"/>
<path d="M27.2407 21.7227H50.7547" stroke="#303030" stroke-width="0.7" stroke-miterlimit="10" stroke-linecap="round" stroke-linejoin="round"/>
<path d="M31.3379 28.8477H46.6576" stroke="#303030" stroke-width="0.7" stroke-miterlimit="10" stroke-linecap="round" stroke-linejoin="round"/>
</svg>
