<svg width="56" height="56" viewBox="0 0 56 56" fill="none" xmlns="http://www.w3.org/2000/svg">
<g clip-path="url(#clip0_8_677)">
<path d="M47.8499 51.0858H2.54651V3.38672L36.8862 3.38733L52.7416 18.1516V46.196C52.7416 48.8858 50.5403 51.0858 47.8499 51.0858Z" fill="#FDE497"/>
<path d="M30.1828 36.6924L19.3132 25.8223L42.1914 2.94534C44.0529 1.08072 47.08 1.08072 48.9434 2.94534L53.0597 7.06226C54.9237 8.92688 54.9237 11.9484 53.0597 13.8149L30.1828 36.6924Z" fill="#9ABFDA"/>
<path d="M30.1828 38.2382C29.773 38.2382 29.3791 38.0745 29.0899 37.7852L18.2197 26.9151C17.616 26.312 17.616 25.3323 18.2197 24.7286L41.0985 1.85108C42.2905 0.657846 43.8776 0 45.5674 0C47.2567 0 48.8444 0.657846 50.0376 1.85169L54.1533 5.96862C56.616 8.432 56.6167 12.4418 54.1539 14.9065L31.2757 37.7852C30.9859 38.0745 30.5927 38.2382 30.1828 38.2382ZM21.4991 25.8215L30.1822 34.5046L51.9662 12.7206C53.2234 11.4615 53.224 9.41292 51.9656 8.15446L47.8499 4.03754C47.2407 3.42769 46.4296 3.09169 45.5668 3.09169C44.704 3.09169 43.8936 3.42708 43.2856 4.03692L21.4991 25.8215Z" fill="#454B53"/>
<path d="M50.6314 17.789C50.2357 17.789 49.8401 17.6376 49.5385 17.336L38.6671 6.46713C38.0634 5.86343 38.0634 4.88436 38.6671 4.28066C39.2702 3.67759 40.2499 3.67697 40.8536 4.28066L51.725 15.1496C52.3287 15.7533 52.3287 16.7324 51.725 17.336C51.4228 17.6376 51.0277 17.789 50.6314 17.789Z" fill="#454B53"/>
<path d="M30.0345 36.5395L15.3403 40.513L19.4308 25.9395L30.0345 36.5395Z" fill="#E0F1F8"/>
<path d="M15.3403 42.0581C14.9335 42.0581 14.536 41.8969 14.2418 41.6003C13.8504 41.2046 13.7015 40.6304 13.8517 40.0944L17.9421 25.5209C18.0904 24.9923 18.5083 24.5824 19.0394 24.4427C19.5704 24.3043 20.1347 24.4569 20.5237 24.8452L31.1273 35.4452C31.5175 35.8354 31.6707 36.404 31.528 36.9369C31.3858 37.4704 30.9704 37.8877 30.4381 38.0311L15.7433 42.0046C15.6104 42.0409 15.4744 42.0581 15.3403 42.0581ZM20.2055 28.8994L17.5643 38.3092L27.0523 35.7431L20.2055 28.8994Z" fill="#454B53"/>
<path d="M30.1557 27.3945C29.7594 27.3945 29.3643 27.2431 29.0628 26.9415C28.4591 26.3379 28.4591 25.3588 29.0628 24.7545L39.6363 14.1828C40.24 13.5791 41.2197 13.5803 41.8228 14.1828C42.4264 14.7865 42.4264 15.7655 41.8228 16.3692L31.2486 26.9415C30.9471 27.2431 30.5508 27.3945 30.1557 27.3945Z" fill="#454B53"/>
<path d="M47.872 52.9975H2.54646C1.69231 52.9975 1 52.3052 1 51.451V3.38826C1 2.5341 1.69231 1.8418 2.54646 1.8418H32.9803C33.8345 1.8418 34.5268 2.5341 34.5268 3.38826C34.5268 4.24241 33.8345 4.93472 32.9803 4.93472H4.09231V49.9052H47.872C49.6517 49.9052 51.0985 48.4566 51.0985 46.6756V23.8664C51.0985 23.0123 51.7908 22.32 52.6449 22.32C53.4991 22.32 54.1914 23.0123 54.1914 23.8664V46.6756C54.1908 50.1618 51.3563 52.9975 47.872 52.9975Z" fill="#454B53"/>
</g>
<defs>
<clipPath id="clip0_8_677">
<rect width="56" height="56" fill="white"/>
</clipPath>
</defs>
</svg>
