<svg width="22" height="20" viewBox="0 0 22 20" fill="none" xmlns="http://www.w3.org/2000/svg">
<path d="M21 14.005H12.9C12.6705 12.8747 12.0573 11.8585 11.1643 11.1286C10.2712 10.3987 9.15336 10 8 10C6.84664 10 5.72875 10.3987 4.83574 11.1286C3.94273 11.8585 3.32951 12.8747 3.1 14.005H1C0.734784 14.005 0.48043 14.1104 0.292893 14.2979C0.105357 14.4854 0 14.7398 0 15.005C0 15.2702 0.105357 15.5246 0.292893 15.7121C0.48043 15.8997 0.734784 16.005 1 16.005H3.1C3.32951 17.1353 3.94273 18.1515 4.83574 18.8814C5.72875 19.6113 6.84664 20.01 8 20.01C9.15336 20.01 10.2712 19.6113 11.1643 18.8814C12.0573 18.1515 12.6705 17.1353 12.9 16.005H21C21.2652 16.005 21.5196 15.8997 21.7071 15.7121C21.8946 15.5246 22 15.2702 22 15.005C22 14.7398 21.8946 14.4854 21.7071 14.2979C21.5196 14.1104 21.2652 14.005 21 14.005ZM8 18.005C7.40666 18.005 6.82664 17.8291 6.33329 17.4994C5.83994 17.1698 5.45542 16.7012 5.22836 16.1531C5.0013 15.6049 4.94189 15.0017 5.05764 14.4197C5.1734 13.8378 5.45912 13.3032 5.87868 12.8837C6.29824 12.4641 6.83279 12.1784 7.41473 12.0627C7.99667 11.9469 8.59987 12.0063 9.14805 12.2334C9.69623 12.4604 10.1648 12.845 10.4944 13.3383C10.8241 13.8316 11 14.4117 11 15.005C11 15.8007 10.6839 16.5637 10.1213 17.1263C9.55871 17.6889 8.79565 18.005 8 18.005Z" fill="white"/>
<path d="M1 5.999H9.1C9.32952 7.12816 9.94273 8.14332 10.8357 8.8725C11.7288 9.60167 12.8466 10 14 10C15.1534 10 16.2712 9.60167 17.1643 8.8725C18.0573 8.14332 18.6705 7.12816 18.9 5.999H21C21.2652 5.999 21.5196 5.89375 21.7071 5.7064C21.8946 5.51905 22 5.26495 22 5C22 4.73505 21.8946 4.48095 21.7071 4.2936C21.5196 4.10625 21.2652 4.001 21 4.001H18.9C18.6705 2.87185 18.0573 1.85668 17.1643 1.1275C16.2712 0.398332 15.1534 0 14 0C12.8466 0 11.7288 0.398332 10.8357 1.1275C9.94273 1.85668 9.32952 2.87185 9.1 4.001H1C0.734784 4.001 0.48043 4.10625 0.292893 4.2936C0.105357 4.48095 0 4.73505 0 5C0 5.26495 0.105357 5.51905 0.292893 5.7064C0.48043 5.89375 0.734784 5.999 1 5.999ZM14 2.003C14.5933 2.003 15.1734 2.17878 15.6667 2.50809C16.1601 2.8374 16.5446 3.30547 16.7716 3.8531C16.9987 4.40073 17.0581 5.00332 16.9424 5.58468C16.8266 6.16605 16.5409 6.70006 16.1213 7.1192C15.7018 7.53833 15.1672 7.82377 14.5853 7.93941C14.0033 8.05505 13.4001 7.9957 12.8519 7.76886C12.3038 7.54203 11.8352 7.1579 11.5056 6.66504C11.1759 6.17219 11 5.59275 11 5C11 4.20515 11.3161 3.44285 11.8787 2.8808C12.4413 2.31876 13.2044 2.003 14 2.003Z" fill="white"/>
</svg>
